<mxfile host="app.diagrams.net" agent="Mozilla/5.0 (Windows NT 10.0; Win64; x64) AppleWebKit/537.36 (KHTML, like Gecko) Chrome/131.0.0.0 Safari/537.36 Edg/131.0.0.0" version="25.0.1">
  <diagram name="หน้า-1" id="W7zdX_wYxOVHVFCHYQde">
    <mxGraphModel dx="3029" dy="1358" grid="1" gridSize="10" guides="1" tooltips="1" connect="1" arrows="1" fold="1" page="1" pageScale="1" pageWidth="827" pageHeight="1169" math="0" shadow="0">
      <root>
        <mxCell id="0" />
        <mxCell id="1" parent="0" />
        <mxCell id="hDcJbBMgnXzMHfocIpxT-1" value="" style="edgeStyle=orthogonalEdgeStyle;rounded=0;orthogonalLoop=1;jettySize=auto;html=1;entryX=0.5;entryY=0;entryDx=0;entryDy=0;" edge="1" parent="1" source="hDcJbBMgnXzMHfocIpxT-2" target="hDcJbBMgnXzMHfocIpxT-4">
          <mxGeometry relative="1" as="geometry">
            <mxPoint x="414" y="160" as="targetPoint" />
          </mxGeometry>
        </mxCell>
        <mxCell id="hDcJbBMgnXzMHfocIpxT-2" value="Start" style="ellipse;whiteSpace=wrap;html=1;" vertex="1" parent="1">
          <mxGeometry x="354" y="40" width="120" height="80" as="geometry" />
        </mxCell>
        <mxCell id="hDcJbBMgnXzMHfocIpxT-17" value="" style="edgeStyle=orthogonalEdgeStyle;rounded=0;orthogonalLoop=1;jettySize=auto;html=1;" edge="1" parent="1" source="hDcJbBMgnXzMHfocIpxT-4" target="hDcJbBMgnXzMHfocIpxT-16">
          <mxGeometry relative="1" as="geometry" />
        </mxCell>
        <mxCell id="hDcJbBMgnXzMHfocIpxT-4" value="รับข้อมูล User a" style="shape=parallelogram;perimeter=parallelogramPerimeter;whiteSpace=wrap;html=1;fixedSize=1;" vertex="1" parent="1">
          <mxGeometry x="319" y="190" width="190" height="60" as="geometry" />
        </mxCell>
        <mxCell id="hDcJbBMgnXzMHfocIpxT-5" value="End" style="ellipse;whiteSpace=wrap;html=1;" vertex="1" parent="1">
          <mxGeometry x="354" y="750" width="120" height="80" as="geometry" />
        </mxCell>
        <mxCell id="hDcJbBMgnXzMHfocIpxT-8" value="" style="edgeStyle=orthogonalEdgeStyle;rounded=0;orthogonalLoop=1;jettySize=auto;html=1;entryX=0.5;entryY=0;entryDx=0;entryDy=0;" edge="1" parent="1" source="hDcJbBMgnXzMHfocIpxT-9" target="hDcJbBMgnXzMHfocIpxT-5">
          <mxGeometry relative="1" as="geometry">
            <mxPoint x="414" y="745" as="targetPoint" />
          </mxGeometry>
        </mxCell>
        <mxCell id="hDcJbBMgnXzMHfocIpxT-9" value="แสดงข้อมูล" style="shape=parallelogram;perimeter=parallelogramPerimeter;whiteSpace=wrap;html=1;fixedSize=1;" vertex="1" parent="1">
          <mxGeometry x="319" y="630" width="190" height="60" as="geometry" />
        </mxCell>
        <mxCell id="hDcJbBMgnXzMHfocIpxT-20" value="" style="edgeStyle=orthogonalEdgeStyle;rounded=0;orthogonalLoop=1;jettySize=auto;html=1;" edge="1" parent="1" source="hDcJbBMgnXzMHfocIpxT-15" target="hDcJbBMgnXzMHfocIpxT-19">
          <mxGeometry relative="1" as="geometry" />
        </mxCell>
        <mxCell id="hDcJbBMgnXzMHfocIpxT-15" value="รับข้อมูล User c" style="shape=parallelogram;perimeter=parallelogramPerimeter;whiteSpace=wrap;html=1;fixedSize=1;" vertex="1" parent="1">
          <mxGeometry x="319" y="390" width="190" height="60" as="geometry" />
        </mxCell>
        <mxCell id="hDcJbBMgnXzMHfocIpxT-18" value="" style="edgeStyle=orthogonalEdgeStyle;rounded=0;orthogonalLoop=1;jettySize=auto;html=1;" edge="1" parent="1" source="hDcJbBMgnXzMHfocIpxT-16" target="hDcJbBMgnXzMHfocIpxT-15">
          <mxGeometry relative="1" as="geometry" />
        </mxCell>
        <mxCell id="hDcJbBMgnXzMHfocIpxT-16" value="รับข้อมูล User b" style="shape=parallelogram;perimeter=parallelogramPerimeter;whiteSpace=wrap;html=1;fixedSize=1;" vertex="1" parent="1">
          <mxGeometry x="319" y="290" width="190" height="60" as="geometry" />
        </mxCell>
        <mxCell id="hDcJbBMgnXzMHfocIpxT-21" value="" style="edgeStyle=orthogonalEdgeStyle;rounded=0;orthogonalLoop=1;jettySize=auto;html=1;" edge="1" parent="1" source="hDcJbBMgnXzMHfocIpxT-19" target="hDcJbBMgnXzMHfocIpxT-9">
          <mxGeometry relative="1" as="geometry" />
        </mxCell>
        <mxCell id="hDcJbBMgnXzMHfocIpxT-19" value="เรียงลำดับจากมากไปน้อย" style="rounded=0;whiteSpace=wrap;html=1;" vertex="1" parent="1">
          <mxGeometry x="314" y="500" width="200" height="80" as="geometry" />
        </mxCell>
      </root>
    </mxGraphModel>
  </diagram>
</mxfile>
